<?xml version="1.0" encoding="utf-8"?>
<!-- Generator: Adobe Illustrator 23.0.4, SVG Export Plug-In . SVG Version: 6.00 Build 0)  -->
<svg version="1.1" id="Layer_1" xmlns="http://www.w3.org/2000/svg" xmlns:xlink="http://www.w3.org/1999/xlink" x="0px" y="0px"
	 viewBox="0 0 645.9 213.9" style="enable-background:new 0 0 645.9 213.9;" xml:space="preserve">
<style type="text/css">
	.st0{fill:#FFFFFF;}
</style>
<g>
	<path class="st0" d="M141.5,75.2h-9.9c-4.3,0-7.7,1.3-10.2,3.8c-2.5,2.5-3.8,5.9-3.8,10.3v35.4c0,4.3,1.2,7.8,3.8,10.3
		c2.5,2.5,5.9,3.8,10.2,3.8h9.9c4.3,0,7.7-1.2,10.1-3.8c2.5-2.5,3.7-5.9,3.7-10.3V89.2c0-4.3-1.2-7.8-3.7-10.3
		C149.1,76.5,145.7,75.2,141.5,75.2z M150.3,124.5c0,3.2-0.8,5.6-2.4,7.3c-1.6,1.7-3.9,2.5-6.9,2.5H132c-3,0-5.3-0.8-6.9-2.5
		c-1.6-1.7-2.4-4.1-2.4-7.3V89.4c0-3.2,0.8-5.6,2.4-7.3c1.6-1.7,3.9-2.5,6.9-2.5h9.1c3,0,5.3,0.8,6.9,2.5c1.6,1.7,2.4,4.1,2.4,7.3
		V124.5z"/>
	<path class="st0" d="M183.7,75.2h-2.6c-0.7,0-1.4,0.2-2.1,0.7l-12.4,7c-0.8,0.5-1.2,1.2-1.2,2.1v2.2c0,1.1,0.6,1.3,1.7,0.6
		l12.7-7.2v57c0,0.8,0.3,1.2,1,1.2h2.9c0.7,0,1.1-0.4,1.1-1.2V76.4C184.8,75.6,184.4,75.2,183.7,75.2z"/>
	<path class="st0" d="M205.9,75.2h-2.9c-0.7,0-1,0.4-1,1.2v61.1c0,0.8,0.3,1.2,1,1.2h2.9c0.7,0,1.1-0.4,1.1-1.2V76.4
		C207,75.6,206.7,75.2,205.9,75.2z"/>
	<path class="st0" d="M259.9,110.8c-2.4-2.2-5.3-3.8-8.6-4.6c-3.4-0.9-6.8-1.6-10.1-2.3c-8.1-1.6-12.1-4.6-12.1-9.2v-4.9
		c0-6.7,3.2-10.1,9.5-10.1h10.2c6.4,0,9.6,3.3,9.6,9.9V92c0,0.7,0.4,1.1,1.1,1.1h2.9c0.7,0,1.1-0.4,1.1-1.1v-2.8
		c0-4.3-1.3-7.8-3.8-10.3c-2.5-2.5-5.9-3.8-10.2-3.8h-11.5c-4.3,0-7.7,1.3-10.2,3.8c-2.5,2.5-3.8,5.9-3.8,10.3v5.4
		c0,3.6,1.2,6.4,3.6,8.5c2.4,2.1,5.2,3.6,8.6,4.3c3.4,0.8,6.8,1.5,10.1,2.3c3.4,0.7,6.2,1.9,8.6,3.6c2.4,1.6,3.6,3.9,3.6,6.8v4.1
		c0,6.6-3.2,10-9.6,10h-10.3c-6.4,0-9.6-3.3-9.6-9.9v-3.3c0-0.7-0.4-1.1-1.1-1.1H225c-0.7,0-1.1,0.4-1.1,1.1v3.6
		c0,4.3,1.2,7.8,3.8,10.3c2.5,2.5,5.9,3.8,10.2,3.8h11.7c4.3,0,7.7-1.2,10.2-3.8c2.5-2.5,3.8-5.9,3.8-10.3v-4.8
		C263.4,116,262.2,113,259.9,110.8z"/>
	<path class="st0" d="M312.2,134.1h-26.5c-0.7,0-1-0.3-1-0.9V76.4c0-0.8-0.4-1.2-1.1-1.2h-2.9c-0.7,0-1,0.4-1,1.2v61.1
		c0,0.8,0.3,1.2,1,1.2h31.4c0.8,0,1.2-0.4,1.2-1.1v-2.5C313.4,134.4,313,134.1,312.2,134.1z"/>
	<path class="st0" d="M346,76.4c-0.3-0.8-0.7-1.2-1.4-1.2h-4.6c-0.7,0-1.2,0.4-1.4,1.2l-19.7,61.1c-0.3,0.8,0,1.2,0.7,1.2h3.1
		c0.6,0,1-0.4,1.3-1.2l5.3-15.8h25.9l5.3,15.8c0.2,0.8,0.6,1.2,1.3,1.2h3.2c0.7,0,0.9-0.4,0.7-1.2L346,76.4z M330.7,117.3L342,80.6
		h0.4l11.5,36.6H330.7z"/>
	<path class="st0" d="M416.4,75.2h-2.8c-0.7,0-1.1,0.4-1.1,1.2v51.5h-0.4l-30.3-52.1c-0.2-0.4-0.6-0.6-1.2-0.6h-2.7
		c-0.7,0-1,0.4-1,1.2v61.1c0,0.8,0.3,1.2,1,1.2h2.9c0.7,0,1.1-0.4,1.1-1.2V85.9h0.4l30.2,51.7c0.5,0.7,1,1.1,1.6,1.1h2.3
		c0.7,0,1.1-0.4,1.1-1.2V76.4C417.4,75.6,417.1,75.2,416.4,75.2z"/>
	<path class="st0" d="M459.5,75.2h-24.4c-0.7,0-1,0.4-1,1.2v61.1c0,0.8,0.3,1.2,1,1.2h24.4c4.3,0,7.7-1.2,10.1-3.8
		c2.5-2.5,3.7-5.9,3.7-10.3V89.2c0-4.3-1.2-7.8-3.7-10.3C467.2,76.5,463.8,75.2,459.5,75.2z M468.4,124.5c0,3.2-0.8,5.6-2.4,7.3
		c-1.6,1.7-3.9,2.5-7,2.5h-19c-0.7,0-1-0.3-1-0.9V80.5c0-0.6,0.3-0.9,1-0.9h19c3,0,5.3,0.8,7,2.5c1.6,1.7,2.4,4.1,2.4,7.3V124.5z"/>
	<path class="st0" d="M524.7,110.8c-2.4-2.2-5.3-3.8-8.6-4.6c-3.4-0.9-6.8-1.6-10.1-2.3c-8.1-1.6-12.1-4.6-12.1-9.2v-4.9
		c0-6.7,3.2-10.1,9.5-10.1h10.2c6.4,0,9.6,3.3,9.6,9.9V92c0,0.7,0.4,1.1,1.1,1.1h2.9c0.7,0,1.1-0.4,1.1-1.1v-2.8
		c0-4.3-1.3-7.8-3.8-10.3c-2.5-2.5-5.9-3.8-10.2-3.8h-11.5c-4.3,0-7.7,1.3-10.2,3.8c-2.5,2.5-3.8,5.9-3.8,10.3v5.4
		c0,3.6,1.2,6.4,3.6,8.5c2.4,2.1,5.2,3.6,8.6,4.3c3.4,0.8,6.8,1.5,10.1,2.3c3.4,0.7,6.2,1.9,8.6,3.6c2.4,1.6,3.6,3.9,3.6,6.8v4.1
		c0,6.6-3.2,10-9.6,10h-10.3c-6.4,0-9.6-3.3-9.6-9.9v-3.3c0-0.7-0.4-1.1-1.1-1.1h-2.9c-0.7,0-1.1,0.4-1.1,1.1v3.6
		c0,4.3,1.2,7.8,3.8,10.3c2.5,2.5,5.9,3.8,10.2,3.8h11.7c4.3,0,7.7-1.2,10.2-3.8c2.5-2.5,3.8-5.9,3.8-10.3v-4.8
		C528.2,116,527.1,113,524.7,110.8z"/>
</g>
</svg>
